<svg width="54" height="54" viewBox="0 0 54 54" fill="none" xmlns="http://www.w3.org/2000/svg">
<rect width="54" height="54" rx="27" fill="white"/>
<path d="M13.666 15H21.666C23.0805 15 24.4371 15.5619 25.4373 16.5621C26.4374 17.5623 26.9993 18.9188 26.9993 20.3333V39C26.9993 37.9391 26.5779 36.9217 25.8278 36.1716C25.0776 35.4214 24.0602 35 22.9993 35H13.666V15Z" stroke="black" stroke-width="2" stroke-linecap="round" stroke-linejoin="round"/>
<path d="M40.3314 15H32.3314C30.9169 15 29.5603 15.5619 28.5601 16.5621C27.5599 17.5623 26.998 18.9188 26.998 20.3333V39C26.998 37.9391 27.4195 36.9217 28.1696 36.1716C28.9198 35.4214 29.9372 35 30.998 35H40.3314V15Z" stroke="black" stroke-width="2" stroke-linecap="round" stroke-linejoin="round"/>
</svg>
